<?xml version="1.0" encoding="UTF-8" standalone="no"?>
<!DOCTYPE svg PUBLIC "-//W3C//DTD SVG 1.1//EN"
 "http://www.w3.org/Graphics/SVG/1.1/DTD/svg11.dtd">
<!-- Generated by graphviz version 2.30.1 (20130704.1115)
 -->
<!-- Title: %3 Pages: 1 -->
<svg width="279pt" height="470pt"
 viewBox="0.00 0.00 279.00 470.00" xmlns="http://www.w3.org/2000/svg" xmlns:xlink="http://www.w3.org/1999/xlink">
<g id="graph0" class="graph" transform="scale(1 1) rotate(0) translate(4 466)">
<title>%3</title>
<polygon fill="white" stroke="white" points="-4,5 -4,-466 276,-466 276,5 -4,5"/>
<!-- source -->
<g id="node1" class="node"><title>source</title>
<g id="a_node1"><a xlink:href="/wiki/makefile/automake#从-helloworld-入手http://hahack.com" xlink:title="源代码">
<polygon fill="#c0d0c0" stroke="black" points="77.25,-462 18.75,-462 18.75,-426 77.25,-426 77.25,-462"/>
<text text-anchor="middle" x="48" y="-440.3" font-family="Times,serif" font-size="14.00">源代码</text>
</a>
</g>
</g>
<!-- conf_scan -->
<g id="node2" class="node"><title>conf_scan</title>
<polygon fill="#c0d0c0" stroke="black" points="96,-374 0,-374 0,-338 96,-338 96,-374"/>
<text text-anchor="middle" x="48" y="-352.3" font-family="Times,serif" font-size="14.00">configure.scan</text>
</g>
<!-- source&#45;&gt;conf_scan -->
<g id="edge1" class="edge"><title>source&#45;&gt;conf_scan</title>
<path fill="none" stroke="black" d="M48,-425.597C48,-413.746 48,-397.817 48,-384.292"/>
<polygon fill="black" stroke="black" points="51.5001,-384.084 48,-374.084 44.5001,-384.084 51.5001,-384.084"/>
<text text-anchor="middle" x="77" y="-396.3" font-family="Times,serif" font-size="14.00">自动扫描</text>
</g>
<!-- conf_ac -->
<g id="node3" class="node"><title>conf_ac</title>
<polygon fill="#c0d0c0" stroke="black" points="89.5,-286 6.5,-286 6.5,-250 89.5,-250 89.5,-286"/>
<text text-anchor="middle" x="48" y="-264.3" font-family="Times,serif" font-size="14.00">configure.ac</text>
</g>
<!-- conf_scan&#45;&gt;conf_ac -->
<g id="edge2" class="edge"><title>conf_scan&#45;&gt;conf_ac</title>
<path fill="none" stroke="black" d="M48,-337.597C48,-325.746 48,-309.817 48,-296.292"/>
<polygon fill="black" stroke="black" points="51.5001,-296.084 48,-286.084 44.5001,-296.084 51.5001,-296.084"/>
<text text-anchor="middle" x="62.5" y="-308.3" font-family="Times,serif" font-size="14.00">编辑</text>
</g>
<!-- configure -->
<g id="node7" class="node"><title>configure</title>
<polygon fill="#c0d0c0" stroke="black" points="153,-110 85,-110 85,-74 153,-74 153,-110"/>
<text text-anchor="middle" x="119" y="-88.3" font-family="Times,serif" font-size="14.00">configure</text>
</g>
<!-- conf_ac&#45;&gt;configure -->
<g id="edge3" class="edge"><title>conf_ac&#45;&gt;configure</title>
<path fill="none" stroke="black" d="M36.9415,-249.768C24.6347,-228.22 8.29414,-190.68 23,-162 34.2072,-140.143 55.915,-123.643 75.8568,-112.267"/>
<polygon fill="black" stroke="black" points="77.7217,-115.238 84.851,-107.4 74.3903,-109.081 77.7217,-115.238"/>
<text text-anchor="middle" x="47" y="-176.3" font-family="Times,serif" font-size="14.00">autoconf</text>
</g>
<!-- aclocal -->
<g id="node6" class="node"><title>aclocal</title>
<polygon fill="#c0d0c0" stroke="black" points="157.25,-198 80.75,-198 80.75,-162 157.25,-162 157.25,-198"/>
<text text-anchor="middle" x="119" y="-176.3" font-family="Times,serif" font-size="14.00">aclocal.m4</text>
</g>
<!-- conf_ac&#45;&gt;aclocal -->
<g id="edge4" class="edge"><title>conf_ac&#45;&gt;aclocal</title>
<path fill="none" stroke="black" d="M62.3679,-249.597C72.7329,-237.042 86.8767,-219.91 98.4363,-205.908"/>
<polygon fill="black" stroke="black" points="101.228,-208.024 104.896,-198.084 95.8302,-203.567 101.228,-208.024"/>
<text text-anchor="middle" x="109.5" y="-220.3" font-family="Times,serif" font-size="14.00">aclocal</text>
</g>
<!-- makefile_am -->
<g id="node4" class="node"><title>makefile_am</title>
<polygon fill="#c0d0c0" stroke="black" points="262.25,-198 175.75,-198 175.75,-162 262.25,-162 262.25,-198"/>
<text text-anchor="middle" x="219" y="-176.3" font-family="Times,serif" font-size="14.00">Makefile.am</text>
</g>
<!-- makefile_in -->
<g id="node5" class="node"><title>makefile_in</title>
<polygon fill="#c0d0c0" stroke="black" points="255,-110 175,-110 175,-74 255,-74 255,-110"/>
<text text-anchor="middle" x="215" y="-88.3" font-family="Times,serif" font-size="14.00">Makefile.in</text>
</g>
<!-- makefile_am&#45;&gt;makefile_in -->
<g id="edge7" class="edge"><title>makefile_am&#45;&gt;makefile_in</title>
<path fill="none" stroke="black" d="M218.191,-161.597C217.639,-149.746 216.898,-133.817 216.269,-120.292"/>
<polygon fill="black" stroke="black" points="219.756,-119.911 215.795,-110.084 212.763,-120.236 219.756,-119.911"/>
<text text-anchor="middle" x="244" y="-132.3" font-family="Times,serif" font-size="14.00">automake</text>
</g>
<!-- Makefile -->
<g id="node8" class="node"><title>Makefile</title>
<polygon fill="#c0d0c0" stroke="black" points="208,-36 142,-36 142,-0 208,-0 208,-36"/>
<text text-anchor="middle" x="175" y="-14.3" font-family="Times,serif" font-size="14.00">Makefile</text>
</g>
<!-- makefile_in&#45;&gt;Makefile -->
<g id="edge8" class="edge"><title>makefile_in&#45;&gt;Makefile</title>
<path fill="none" stroke="black" d="M205.521,-73.937C200.759,-65.3654 194.884,-54.7914 189.565,-45.2165"/>
<polygon fill="black" stroke="black" points="192.605,-43.4825 184.689,-36.4407 186.486,-46.882 192.605,-43.4825"/>
</g>
<!-- aclocal&#45;&gt;configure -->
<g id="edge5" class="edge"><title>aclocal&#45;&gt;configure</title>
<path fill="none" stroke="black" d="M119,-161.597C119,-149.746 119,-133.817 119,-120.292"/>
<polygon fill="black" stroke="black" points="122.5,-120.084 119,-110.084 115.5,-120.084 122.5,-120.084"/>
</g>
<!-- configure&#45;&gt;Makefile -->
<g id="edge6" class="edge"><title>configure&#45;&gt;Makefile</title>
<path fill="none" stroke="black" d="M132.271,-73.937C139.076,-65.1886 147.502,-54.3545 155.069,-44.6256"/>
<polygon fill="black" stroke="black" points="158.058,-46.483 161.435,-36.4407 152.533,-42.1854 158.058,-46.483"/>
</g>
</g>
</svg>
